<?xml version="1.0" standalone="no"?>
<!DOCTYPE svg PUBLIC "-//W3C//DTD SVG 20010904//EN"
 "http://www.w3.org/TR/2001/REC-SVG-20010904/DTD/svg10.dtd">
<svg version="1.0" xmlns="http://www.w3.org/2000/svg"
 width="764.000000pt" height="567.000000pt" viewBox="0 0 764.000000 567.000000"
 preserveAspectRatio="xMidYMid meet">

<g transform="translate(0.000000,567.000000) scale(0.100000,-0.100000)"
fill="#000000" stroke="none">
<path d="M5160 5610 c-12 -8 -12 -14 3 -45 21 -44 21 -54 1 -93 -8 -18 -13
-36 -9 -42 8 -13 38 -13 70 2 19 9 34 8 64 -2 22 -7 46 -10 55 -7 14 6 14 11
-1 50 -15 41 -15 47 0 85 14 34 14 42 2 52 -11 9 -22 7 -51 -6 -37 -18 -38
-17 -104 10 -8 3 -22 2 -30 -4z"/>
<path d="M5722 5204 c-41 -28 -16 -94 36 -94 20 0 52 34 52 55 0 38 -55 62
-88 39z"/>
<path d="M1303 4741 c-51 -32 -54 -114 -4 -140 22 -12 71 -14 96 -5 25 10 47
62 40 95 -7 31 -54 69 -85 69 -8 0 -29 -9 -47 -19z"/>
<path d="M5129 4707 c-29 -16 -54 -40 -74 -72 l-30 -48 0 -466 c0 -427 2 -470
18 -513 21 -55 98 -130 149 -144 l33 -10 5 -120 c6 -135 15 -160 75 -188 26
-13 48 -16 78 -11 46 8 57 18 230 208 l99 107 379 0 380 0 48 25 c56 28 84 62
100 120 14 53 15 945 1 997 -14 50 -55 97 -105 119 -37 17 -81 19 -691 19
l-651 0 -44 -23z m1372 -60 c71 -47 70 -37 67 -567 -3 -473 -3 -475 -25 -506
-45 -63 -51 -64 -476 -64 l-384 0 -110 -117 c-60 -65 -125 -136 -144 -157 -28
-31 -43 -39 -68 -38 -63 2 -71 20 -71 161 0 69 -4 131 -8 137 -4 6 -28 16 -54
23 -52 15 -104 60 -124 108 -11 26 -14 128 -14 490 0 442 1 459 20 491 38 63
21 61 721 62 l636 0 34 -23z"/>
<path d="M5260 4547 c-13 -7 -29 -22 -35 -34 -15 -30 -20 -749 -5 -803 19 -72
1 -70 609 -70 l539 0 31 26 31 26 0 412 c0 407 0 413 -21 432 -20 18 -46 19
-573 21 -429 2 -556 0 -576 -10z m1104 -37 c22 -8 26 -16 26 -50 l0 -40 -567
2 -566 3 -2 33 c-3 65 -26 62 555 62 319 0 539 -4 554 -10z m-1082 -482 c2
-268 0 -334 -9 -326 -10 8 -13 90 -13 346 0 218 3 333 10 326 6 -6 11 -145 12
-346z m523 267 c0 -19 -7 -20 -235 -20 -211 0 -235 2 -238 17 -2 9 5 18 15 21
10 3 117 4 238 3 213 -1 220 -2 220 -21z m441 -96 c17 -28 -21 -33 -284 -37
-248 -4 -269 -3 -275 13 -4 9 -5 21 -1 26 8 13 551 12 560 -2z m-152 -95 c79
-11 57 -31 -44 -38 -97 -8 -110 -5 -110 25 0 16 7 19 54 19 29 0 74 -3 100 -6z
m-120 -108 c-3 -8 -15 -17 -27 -20 -12 -3 -153 -6 -313 -6 -245 0 -293 2 -297
14 -3 8 -1 17 6 20 7 2 152 5 324 5 264 1 312 -1 307 -13z m-359 -90 c11 -8
16 -19 12 -30 -6 -15 -23 -17 -149 -14 -138 3 -143 4 -146 25 -4 28 8 30 149
32 83 1 120 -3 134 -13z m325 -125 c0 -17 -20 -18 -291 -24 -160 -3 -297 -3
-304 -1 -8 3 -13 14 -12 25 1 19 11 19 304 19 284 -1 303 -2 303 -19z"/>
<path d="M5344 4479 c-8 -14 11 -33 25 -25 11 7 4 36 -9 36 -5 0 -12 -5 -16
-11z"/>
<path d="M5414 4476 c-8 -22 3 -33 18 -18 9 9 9 15 0 24 -9 9 -13 7 -18 -6z"/>
<path d="M5474 4479 c-8 -14 11 -33 25 -25 6 4 11 11 11 16 0 13 -29 20 -36 9z"/>
<path d="M3594 4406 c-97 -19 -137 -32 -219 -75 -86 -44 -198 -148 -245 -228
-19 -32 -54 -77 -77 -101 -53 -53 -89 -127 -109 -222 -19 -89 -13 -370 10
-485 11 -57 12 -73 1 -85 -81 -96 -5 -354 112 -376 25 -5 33 -11 33 -28 0 -11
3 -38 6 -58 l6 -37 -368 -3 c-251 -2 -377 -7 -395 -15 -44 -19 -101 -75 -120
-118 -17 -38 -19 -87 -19 -823 0 -766 0 -784 20 -822 l20 -40 -48 0 c-69 0
-145 -40 -177 -93 -33 -58 -41 -117 -21 -157 15 -32 15 -33 -13 -66 -16 -18
-32 -46 -36 -63 -5 -26 -11 -31 -36 -31 -27 0 -29 3 -29 35 0 25 -8 44 -25 60
-21 22 -33 25 -95 25 l-71 0 6 43 c4 34 85 903 85 921 0 2 15 6 33 8 31 3 32
5 35 50 3 40 -1 51 -28 81 -16 19 -41 37 -53 41 -17 4 -26 16 -33 42 -18 72
-24 73 -364 88 -186 8 -317 10 -337 4 -41 -11 -63 -42 -63 -89 0 -31 -4 -38
-30 -49 -40 -17 -78 -63 -86 -105 -7 -42 8 -65 43 -65 13 0 25 -6 28 -12 4
-13 85 -909 85 -940 0 -15 -10 -18 -64 -18 -83 0 -116 -23 -116 -81 l0 -39
-85 0 c-92 0 -138 -13 -170 -50 -16 -17 -20 -36 -20 -90 l0 -67 -128 -7 c-139
-7 -187 -14 -187 -26 0 -4 19 -11 42 -15 24 -4 1404 -10 3068 -14 l3025 -6 36
-28 c66 -50 140 -70 280 -75 112 -4 131 -2 173 16 34 16 50 30 61 55 l14 34
218 6 c219 7 283 13 283 27 0 13 -49 20 -185 26 -174 7 -177 8 -165 40 31 82
-36 174 -127 174 -29 0 -33 3 -33 26 0 16 -13 39 -36 62 -48 48 -48 80 1 126
33 31 37 40 31 68 -3 20 -20 45 -41 63 -28 24 -35 37 -35 65 0 19 -7 64 -15
99 -61 256 -279 424 -530 408 -131 -8 -258 -61 -334 -140 -17 -17 -32 -29 -34
-26 -2 2 -23 39 -47 82 -48 84 -68 102 -106 93 -17 -5 -27 -18 -35 -49 -13
-45 -26 -67 -40 -67 -5 0 -25 25 -45 55 -63 94 -109 86 -137 -22 -10 -37 -33
-97 -52 -133 -53 -104 -68 -190 -51 -306 7 -50 7 -51 -22 -63 -16 -7 -43 -27
-60 -44 -66 -68 -80 -159 -37 -243 14 -27 25 -50 25 -51 0 -2 -68 -3 -150 -3
l-150 0 7 28 c20 79 -25 132 -112 132 -28 0 -36 5 -40 23 -17 73 -25 113 -25
125 0 9 40 12 166 12 96 0 183 5 205 11 50 16 105 61 132 112 l22 42 3 745 c2
410 0 769 -3 797 -9 72 -55 138 -120 172 l-50 26 -369 3 -368 3 6 31 c3 17 6
43 6 59 0 24 4 29 24 29 40 0 89 42 121 105 41 81 48 196 15 252 -12 21 -27
41 -34 45 -9 5 -9 45 1 170 26 347 27 408 9 477 -25 97 -62 158 -151 246 -123
123 -290 211 -504 266 -100 26 -291 33 -387 15z m411 -89 c195 -60 341 -142
448 -250 37 -37 67 -73 67 -78 0 -6 -28 18 -62 53 -35 35 -88 80 -118 100 -68
44 -190 102 -209 99 -7 -1 -10 2 -6 8 6 10 -14 16 -44 12 -7 -2 -10 2 -7 7 3
6 -2 8 -13 5 -10 -2 -53 5 -96 17 -65 18 -97 21 -205 18 l-129 -3 -38 -36
c-51 -48 -106 -72 -178 -77 -43 -3 -68 -11 -87 -27 -15 -13 -31 -25 -36 -27
-14 -5 -92 -112 -92 -125 0 -20 -18 -15 -25 7 -20 62 152 230 289 283 100 38
164 47 316 43 120 -3 159 -8 225 -29z m-853 -348 c19 -10 19 -12 -14 -39 -43
-35 -92 -127 -108 -201 -13 -57 -9 -385 5 -454 4 -21 3 -26 -3 -15 -20 31 -34
198 -30 360 4 187 19 243 84 318 40 47 38 46 66 31z m473 -155 c62 -30 141
-61 180 -69 l70 -15 -75 4 c-93 5 -159 25 -230 71 -30 19 -67 40 -82 47 -16 7
-28 16 -28 20 0 16 56 -4 165 -58z m-114 -44 c110 -71 157 -84 299 -85 142 0
191 14 299 86 86 58 121 51 180 -35 77 -111 95 -223 89 -553 -5 -247 -17 -330
-49 -326 -8 1 -41 11 -74 23 -88 30 -209 36 -332 15 -89 -14 -115 -15 -192 -5
-49 7 -143 11 -212 8 -109 -4 -131 -8 -179 -31 -51 -25 -56 -26 -68 -10 -23
31 -30 86 -36 273 -11 335 30 545 127 648 41 43 72 41 148 -8z m-435 -621 c28
-30 29 -33 29 -134 0 -59 -5 -109 -10 -114 -28 -28 -100 77 -111 162 -8 53 16
117 44 117 10 0 31 -14 48 -31z m1534 1 c29 -69 -14 -216 -71 -246 -39 -20
-42 -11 -37 120 3 94 5 107 27 130 34 36 65 34 81 -4z m-1420 -342 c0 -59 -4
-98 -10 -98 -6 0 -10 44 -10 113 0 76 3 107 10 97 5 -8 10 -59 10 -112z m355
30 c-49 -5 -118 -17 -152 -28 -75 -24 -88 -25 -48 -3 52 29 117 42 205 41 l85
-1 -90 -9z m420 -3 c-38 -6 -83 -15 -100 -20 -21 -5 -27 -4 -20 3 14 14 90 30
145 30 40 0 37 -2 -25 -13z m1234 -194 c52 -10 89 -36 116 -82 19 -33 20 -55
23 -782 2 -509 -1 -760 -8 -787 -15 -55 -63 -107 -110 -120 -24 -6 -221 -9
-541 -8 l-504 3 -9 73 c-4 40 -6 76 -3 78 4 4 365 18 632 24 35 1 37 3 17 10
-12 5 -166 13 -342 16 l-319 7 -6 41 c-3 23 -19 141 -35 263 -16 125 -35 234
-44 251 -9 17 -30 41 -48 54 -31 22 -44 23 -203 26 -161 3 -172 2 -214 -20
-66 -34 -76 -62 -106 -303 -15 -115 -30 -232 -33 -260 l-7 -50 -305 -7 c-394
-10 -461 -22 -170 -32 118 -3 270 -7 337 -9 l123 -2 0 -45 c0 -25 -3 -62 -6
-83 l-7 -38 -521 3 c-578 3 -558 1 -608 70 l-23 33 -3 775 c-2 540 1 783 8
801 18 42 72 87 115 98 50 11 2743 13 2804 2z m-3778 -832 c129 -6 240 -14
248 -18 7 -5 -20 -7 -60 -4 -533 26 -549 25 -549 -18 0 -11 -4 -19 -10 -19
-11 0 -14 53 -3 63 9 10 104 9 374 -4z m345 -134 c17 -13 -26 -14 -373 -15
-352 0 -394 -2 -422 -17 -40 -24 -53 -7 -18 23 l28 24 383 0 c321 0 385 -2
402 -15z m2222 -50 c23 -19 32 -37 36 -73 86 -671 126 -989 126 -1003 0 -15
-28 -17 -347 -21 -192 -2 -350 -3 -352 -2 -6 5 131 1058 140 1076 21 39 58 47
216 48 147 0 152 -1 181 -25z m-2262 -77 c-3 -13 -6 -42 -6 -65 l0 -43 -354 0
c-398 0 -366 -7 -366 81 l0 49 366 0 366 0 -6 -22z m-146 -246 c-31 -143 -45
-192 -52 -192 -5 0 -8 -9 -8 -19 0 -11 -5 -23 -10 -26 -6 -4 -10 -12 -9 -18 2
-12 -10 -46 -37 -103 -15 -31 -16 -31 -112 -37 -95 -7 -291 -9 -293 -4 -3 7
-45 473 -43 477 1 3 132 4 291 2 l290 -3 -17 -77z m127 56 c-3 -13 -13 -117
-23 -233 -9 -116 -22 -214 -27 -220 -10 -11 -8 40 12 290 13 162 17 185 32
185 6 0 9 -10 6 -22z m4617 -75 c7 -59 19 -92 29 -77 2 5 11 35 18 68 l13 58
45 -5 c25 -3 62 -13 82 -21 l37 -15 -18 -38 c-28 -58 -35 -103 -17 -103 9 0
24 10 34 23 10 12 31 33 46 46 l27 25 30 -29 c28 -27 42 -53 21 -41 -5 3 -14
-1 -21 -9 -7 -8 -17 -15 -21 -15 -5 0 -32 -16 -60 -35 -28 -19 -55 -35 -60
-35 -4 0 -50 -19 -101 -43 -85 -40 -128 -55 -288 -100 -115 -33 -380 -67 -522
-67 -67 0 -78 -2 -79 -17 -2 -44 -28 59 -28 112 -1 70 16 132 58 212 17 32 37
81 44 108 l13 50 23 -41 c49 -87 155 -86 177 1 3 14 9 25 13 25 8 0 70 -127
79 -165 12 -44 51 -46 75 -5 23 38 84 98 119 116 28 14 28 14 34 -26 8 -48 34
-56 34 -10 0 25 7 47 28 79 2 4 96 26 123 30 4 1 9 -25 13 -56z m-4668 -520
c-4 -49 -9 -100 -12 -115 l-6 -28 -278 0 -277 0 -7 83 c-4 45 -9 97 -13 115
l-5 32 302 0 302 0 -6 -87z m708 47 c80 -34 112 -122 62 -169 -38 -36 -69 -25
-80 27 -5 23 -12 42 -16 42 -4 0 -11 -19 -16 -42 l-9 -43 -52 -3 -52 -3 -7 38
c-10 59 -17 62 -29 13 -9 -37 -15 -46 -36 -48 -14 -2 -36 6 -49 16 -47 38 -19
137 50 173 49 27 172 26 234 -1z m176 -47 c62 -55 64 -63 35 -134 -14 -35 -25
-69 -25 -78 0 -10 -6 -7 -17 9 -9 14 -22 28 -29 33 -10 6 -10 15 3 44 15 36
10 94 -12 146 -11 26 1 21 45 -20z m98 26 c-2 -6 -8 -10 -13 -10 -5 0 -11 4
-13 10 -2 6 4 11 13 11 9 0 15 -5 13 -11z m368 -31 l-12 -43 -73 -2 c-79 -1
-148 -22 -176 -53 -12 -13 -31 -20 -57 -20 -21 0 -38 1 -38 3 0 2 14 40 49
130 l11 27 154 0 155 0 -13 -42z m144 23 c0 -44 -17 -68 -49 -69 -33 -1 -35 4
-25 57 6 27 10 31 40 31 27 0 34 -4 34 -19z m1653 12 c3 -5 8 -30 11 -57 6
-39 5 -46 -6 -40 -7 5 -71 11 -143 14 l-129 5 -12 43 -13 42 144 0 c79 0 146
-3 148 -7z m1653 -21 c23 7 104 -83 104 -115 0 -20 -35 -81 -72 -127 -23 -28
-28 -45 -28 -86 0 -61 20 -91 88 -132 43 -25 57 -27 172 -30 137 -4 160 -13
160 -62 0 -45 -78 -66 -94 -25 -8 21 -43 18 -49 -4 -4 -16 -10 -17 -67 -9 -35
4 -77 15 -93 23 -17 8 -37 15 -46 15 -9 0 -31 9 -48 20 -18 11 -33 17 -33 13
0 -4 -11 4 -25 17 -19 18 -22 26 -14 36 18 22 2 46 -28 42 -26 -3 -29 0 -37
43 -11 56 -4 79 24 79 25 0 26 12 0 35 -18 16 -18 19 -3 49 24 49 44 66 75 66
31 0 34 9 14 48 -14 30 -31 135 -18 114 5 -7 13 -12 18 -10z m-108 -11 c9 -5
-23 -9 -82 -10 -54 -1 -103 -6 -109 -11 -38 -32 -105 -70 -124 -70 -20 0 -22
3 -12 28 5 15 17 33 26 40 14 10 5 12 -55 12 -57 0 -72 -3 -72 -15 0 -8 -4
-15 -9 -15 -12 0 -31 -56 -31 -90 0 -24 -6 -30 -47 -43 -26 -9 -49 -14 -51
-12 -2 2 3 16 11 31 14 26 13 30 -10 61 -21 27 -32 33 -64 33 -28 0 -39 -4
-39 -15 0 -8 -5 -15 -11 -15 -18 0 -1 -73 22 -92 19 -17 19 -17 -14 -23 -18
-4 -49 -5 -67 -3 -30 3 -35 7 -42 38 -9 40 8 117 31 140 13 13 9 15 -38 18
-30 2 -59 1 -66 -2 -37 -14 -63 -157 -35 -191 8 -10 2 -14 -31 -17 -32 -3 -44
0 -55 16 -50 71 -8 185 78 212 35 11 876 6 896 -5z m527 -1 c4 -6 -32 -10
-100 -10 -68 0 -104 4 -100 10 3 6 48 10 100 10 52 0 97 -4 100 -10z m-680
-42 c-97 -53 -57 -188 55 -188 17 0 30 -4 30 -10 0 -28 -131 11 -160 48 -31
38 -27 97 9 133 19 19 40 29 58 29 26 -1 26 -1 8 -12z m-2955 -63 c0 -13 -32
-15 -227 -15 -203 1 -225 2 -203 15 38 22 430 22 430 0z m1562 -3 c10 -10 -31
-12 -211 -10 -174 2 -225 6 -229 16 -6 19 421 13 440 -6z m1541 -17 c-12 -16
-28 -25 -48 -25 -16 0 -40 -3 -52 -6 -25 -7 -40 14 -29 41 4 11 22 15 76 15
l71 0 -18 -25z m472 10 c0 -5 -20 -12 -45 -14 l-45 -5 45 -5 c78 -10 45 -26
-61 -29 -94 -3 -101 -1 -94 15 4 10 10 26 12 36 5 16 16 17 97 15 52 -2 91 -7
91 -13z m-3422 -67 c-7 -52 -6 -51 -33 -43 -19 6 -60 59 -60 78 0 4 22 7 49 7
l49 0 -5 -42z m907 29 c0 -18 -28 -55 -52 -68 -26 -14 -38 2 -38 49 0 31 1 32
45 32 30 0 45 -4 45 -13z m-1033 -67 l21 -40 -333 0 c-324 0 -335 1 -345 20
-8 14 -8 26 0 40 10 19 21 20 323 20 l312 0 22 -40z m1727 18 c8 -13 8 -23 0
-35 -10 -16 -41 -18 -345 -23 -184 -3 -335 -4 -337 -4 -1 1 10 20 25 43 l27
41 309 -2 c283 -3 311 -5 321 -20z m-2524 -25 c11 -14 20 -31 20 -37 0 -8 -68
-10 -237 -9 -131 1 -239 2 -241 3 -7 1 30 60 42 67 8 4 100 7 205 5 l190 -3
21 -26z m-640 2 c10 -12 10 -18 0 -30 -10 -12 -81 -14 -475 -15 -486 0 -485 0
-463 43 8 16 41 17 467 17 395 0 460 -2 471 -15z m5035 -15 c4 -6 -47 -10
-145 -10 -98 0 -149 4 -145 10 4 6 63 10 145 10 82 0 141 -4 145 -10z m-584
-140 c3 -19 10 -47 14 -62 l7 -28 -2823 -2 c-2678 -3 -2825 -2 -2841 15 -27
26 -23 72 8 96 l27 21 2801 -2 2801 -3 6 -35z m737 24 c28 -19 31 -80 5 -100
-25 -19 -88 -17 -104 2 -29 35 -66 44 -181 44 -100 0 -118 3 -158 24 -81 43
-70 46 182 46 195 0 237 -3 256 -16z"/>
<path d="M3474 3296 c-7 -19 3 -36 22 -36 11 0 14 -22 14 -115 0 -102 2 -117
20 -135 24 -24 43 -25 64 -4 13 12 16 40 16 134 0 111 1 118 21 123 13 4 20
12 17 24 -3 15 -15 18 -86 21 -66 2 -83 0 -88 -12z"/>
<path d="M3970 3289 c0 -12 8 -23 20 -26 19 -5 20 -14 20 -129 0 -112 2 -124
19 -134 28 -14 38 -13 61 10 18 18 20 33 20 131 0 101 2 112 22 128 36 30 14
41 -78 41 -79 0 -84 -1 -84 -21z"/>
<path d="M4480 2355 c-11 -13 -12 -28 -3 -79 18 -103 56 -171 149 -263 61 -60
85 -91 93 -121 8 -29 26 -52 66 -87 63 -53 83 -52 59 3 -9 20 -18 43 -21 51
-4 10 3 9 27 -4 26 -14 38 -15 52 -6 16 10 17 8 12 -19 -9 -43 15 -73 81 -100
30 -12 58 -20 61 -17 3 3 3 31 -1 61 -9 73 -35 106 -82 106 -30 0 -34 2 -23
15 9 11 9 22 1 46 -6 18 -11 33 -11 35 0 1 21 -9 46 -23 65 -36 73 -19 24 50
-39 54 -82 87 -112 87 -8 0 -33 29 -56 64 -75 114 -197 200 -300 213 -37 4
-51 2 -62 -12z m51 -13 c-13 -24 -40 -46 -47 -39 -4 3 -4 18 0 32 5 18 13 25
32 25 21 0 23 -3 15 -18z m107 -17 c58 -27 150 -109 191 -170 15 -22 35 -67
45 -99 10 -33 28 -67 40 -77 20 -17 20 -18 2 -25 -15 -6 -27 2 -55 34 -20 23
-43 42 -50 42 -8 0 -29 12 -45 28 l-31 27 28 -31 c15 -16 27 -38 27 -48 0 -10
16 -36 36 -58 29 -32 33 -42 23 -54 -10 -13 -16 -11 -38 9 -28 27 -83 57 -102
57 -15 0 -107 78 -120 102 -8 14 -7 24 3 36 12 15 11 16 -5 3 -15 -12 -19 -12
-32 5 -25 34 -57 108 -62 146 -5 30 -2 38 18 49 13 7 30 20 37 31 17 23 26 23
90 -7z m262 -455 c0 -5 -5 -10 -11 -10 -5 0 -7 5 -4 10 3 6 8 10 11 10 2 0 4
-4 4 -10z m50 -58 c0 -10 13 -22 30 -29 26 -10 30 -9 30 5 1 15 3 14 15 -2 8
-11 15 -28 15 -39 0 -20 -16 -18 -77 10 -35 16 -47 36 -38 65 7 22 25 14 25
-10z"/>
<path d="M4578 2259 c27 -30 32 -41 27 -65 -5 -22 -4 -25 4 -14 8 12 11 7 11
-20 0 -26 -3 -31 -10 -20 -6 10 -10 11 -10 3 0 -7 9 -22 20 -33 17 -17 31 -20
70 -18 26 2 46 6 44 10 -2 3 0 18 6 32 6 17 6 35 0 52 -8 21 -8 25 3 21 8 -3
14 1 14 9 0 16 -13 19 -22 4 -4 -7 -11 -7 -18 -2 -16 12 -47 23 -47 16 0 -2
11 -9 25 -14 14 -5 25 -15 25 -22 0 -9 -3 -9 -12 0 -7 7 -17 12 -22 12 -6 0
-3 -5 7 -11 9 -5 17 -18 18 -27 0 -14 2 -14 8 2 6 15 9 16 13 5 3 -8 2 -23 -3
-34 -4 -11 -8 -14 -8 -7 -1 8 -7 6 -19 -5 -12 -12 -14 -21 -8 -25 6 -4 -5 -7
-24 -7 -19 1 -27 3 -17 6 18 5 18 6 -2 19 -28 20 -28 62 2 74 13 5 16 9 7 9
-9 1 -21 -4 -28 -11 -9 -9 -12 -9 -12 0 0 7 10 17 23 22 22 10 22 10 0 7 -13
-1 -36 12 -60 33 l-38 35 33 -36z m57 -139 c3 -5 1 -10 -4 -10 -6 0 -11 5 -11
10 0 6 2 10 4 10 3 0 8 -4 11 -10z m85 0 c0 -5 -5 -10 -11 -10 -5 0 -7 5 -4
10 3 6 8 10 11 10 2 0 4 -4 4 -10z"/>
<path d="M3799 2301 c-138 -43 -164 -217 -46 -305 22 -16 43 -21 92 -21 35 0
67 3 70 7 4 4 -6 23 -24 43 -37 43 -45 70 -39 136 4 36 14 60 37 89 17 21 28
41 23 43 -17 10 -89 15 -113 8z"/>
<path d="M2578 1690 l-28 -21 0 -140 c0 -193 -21 -179 268 -179 209 0 230 2
245 18 24 27 25 293 1 316 -12 13 -39 16 -127 16 -62 0 -161 3 -222 6 -103 6
-112 5 -137 -16z m167 -110 l49 -50 -49 -50 c-48 -49 -75 -62 -75 -38 0 7 17
29 37 50 l37 38 -37 38 c-20 21 -37 43 -37 50 0 24 27 11 75 -38z m215 -135
c0 -12 -17 -15 -95 -15 -78 0 -95 3 -95 15 0 12 17 15 95 15 78 0 95 -3 95
-15z"/>
<path d="M3753 1379 c-44 -13 -90 -62 -103 -110 -15 -55 3 -115 46 -156 111
-104 288 -1 260 151 -16 85 -116 141 -203 115z m105 -62 c30 -14 52 -56 52
-98 0 -48 -56 -99 -108 -99 -47 0 -96 40 -105 87 -8 41 21 95 63 115 35 18 55
17 98 -5z"/>
<path d="M1350 1273 c-85 -36 -135 -128 -106 -197 l11 -29 45 44 c31 30 49 59
59 93 11 37 22 53 47 68 59 35 14 52 -56 21z"/>
<path d="M1430 1227 c-17 -8 -33 -34 -50 -76 -17 -42 -39 -75 -63 -96 -20 -18
-34 -35 -30 -38 3 -4 24 -7 45 -7 91 0 186 119 164 205 -7 28 -27 32 -66 12z"/>
<path d="M846 4224 c-24 -23 -20 -61 8 -80 52 -33 114 36 71 80 -21 20 -59 21
-79 0z"/>
<path d="M1326 3205 c-172 -47 -257 -239 -190 -428 31 -88 108 -151 198 -163
43 -6 48 -5 45 11 -3 12 -21 23 -54 32 -110 32 -167 117 -167 248 0 117 48
200 138 242 153 70 284 11 284 -126 0 -60 -34 -128 -76 -153 -35 -21 -41 -32
-23 -43 17 -11 67 15 92 49 33 43 47 90 47 155 0 80 -30 128 -99 164 -61 30
-115 34 -195 12z"/>
<path d="M1395 3080 c-9 -15 4 -30 25 -30 28 0 34 -18 15 -46 -17 -26 -13 -44
9 -44 19 0 46 44 46 73 0 13 -8 31 -18 40 -20 19 -67 23 -77 7z"/>
<path d="M1287 3020 c-64 -75 -34 -177 62 -209 47 -15 61 -14 61 7 0 13 -12
22 -38 30 -50 15 -72 41 -74 86 -1 27 6 44 26 65 28 29 28 51 1 51 -7 0 -24
-13 -38 -30z"/>
<path d="M1007 2884 c-12 -13 -7 -70 7 -90 22 -28 35 -7 27 45 -6 42 -19 60
-34 45z"/>
<path d="M1037 2733 c-13 -12 -7 -45 14 -74 20 -29 95 -79 117 -79 27 0 8 37
-31 61 -26 16 -50 41 -61 62 -17 36 -26 44 -39 30z"/>
<path d="M1453 2615 c-3 -9 -4 -17 -2 -18 2 -1 17 -9 34 -17 96 -50 99 -205 5
-252 -19 -10 -35 -24 -35 -30 0 -22 49 -20 78 2 98 77 86 264 -20 314 -42 20
-52 20 -60 1z"/>
<path d="M1337 2249 c-38 -29 -52 -84 -35 -133 16 -49 55 -78 105 -80 50 -1
51 21 0 39 -20 7 -43 18 -51 24 -33 28 -19 108 23 131 12 6 21 17 21 25 0 21
-33 18 -63 -6z"/>
<path d="M360 1836 c-8 -26 -19 -38 -46 -46 -43 -14 -44 -37 -2 -54 19 -8 38
-27 47 -47 20 -42 31 -41 52 1 9 19 29 38 47 46 41 17 41 40 -2 54 -25 8 -36
19 -43 43 -12 45 -38 47 -53 3z"/>
<path d="M6987 1592 c-37 -41 -7 -104 50 -104 29 0 63 33 63 61 0 9 -7 27 -16
39 -19 28 -74 30 -97 4z"/>
<path d="M592 1344 c-41 -29 -19 -94 33 -94 50 0 73 60 37 93 -23 21 -41 21
-70 1z"/>
</g>
</svg>
